<?xml version="1.0" encoding="utf-8"?>
<!-- Generator: Adobe Illustrator 17.0.0, SVG Export Plug-In . SVG Version: 6.00 Build 0)  -->
<!DOCTYPE svg PUBLIC "-//W3C//DTD SVG 1.1//EN" "http://www.w3.org/Graphics/SVG/1.1/DTD/svg11.dtd">
<svg version="1.1" xmlns="http://www.w3.org/2000/svg" xmlns:xlink="http://www.w3.org/1999/xlink" x="0px" y="0px" width="73.92px"
	 height="73.92px" viewBox="0 0 73.92 73.92" enable-background="new 0 0 73.92 73.92" xml:space="preserve">
<g id="Facebook_копия_3_1_" enable-background="new    ">
</g>
<g id="Эллипс_2_1_" enable-background="new    ">
	<g id="Эллипс_2">
		<g>
			<linearGradient id="SVGID_1_" gradientUnits="userSpaceOnUse" x1="57.1551" y1="61.9271" x2="16.5248" y2="11.7529">
				<stop  offset="0" style="stop-color:#000000"/>
				<stop  offset="0" style="stop-color:#8C4C25"/>
				<stop  offset="1" style="stop-color:#DB781B"/>
			</linearGradient>
			<path fill="url(#SVGID_1_)" d="M36.84,7.06c16.421,0,29.78,13.359,29.78,29.78c0,16.421-13.359,29.78-29.78,29.78
				c-16.421,0-29.78-13.359-29.78-29.78C7.06,20.419,20.419,7.06,36.84,7.06 M36.84,4.56c-17.828,0-32.28,14.452-32.28,32.28
				s14.452,32.28,32.28,32.28s32.28-14.452,32.28-32.28S54.668,4.56,36.84,4.56L36.84,4.56z"/>
		</g>
	</g>
</g>
<g id="Эллипс_2_копия_1_" enable-background="new    ">
	<g id="Эллипс_2_копия">
		<g>
			<linearGradient id="SVGID_2_" gradientUnits="userSpaceOnUse" x1="58.3635" y1="63.4193" x2="15.3165" y2="10.2607">
				<stop  offset="0" style="stop-color:#000000"/>
				<stop  offset="0" style="stop-color:#8C4C25"/>
				<stop  offset="1" style="stop-color:#DB781B"/>
			</linearGradient>
			<path fill="url(#SVGID_2_)" d="M36.84,3.64c18.307,0,33.2,14.893,33.2,33.2s-14.893,33.2-33.2,33.2s-33.2-14.893-33.2-33.2
				S18.533,3.64,36.84,3.64 M36.84,2.64c-18.888,0-34.2,15.312-34.2,34.2s15.312,34.2,34.2,34.2s34.2-15.312,34.2-34.2
				S55.728,2.64,36.84,2.64L36.84,2.64z"/>
		</g>
	</g>
</g>
<g id="Эллипс_2_копия_2_1_" enable-background="new    ">
	<g id="Эллипс_2_копия_2">
		<g>
			<linearGradient id="SVGID_3_" gradientUnits="userSpaceOnUse" x1="59.8415" y1="65.7906" x2="13.3206" y2="8.342">
				<stop  offset="0" style="stop-color:#000000"/>
				<stop  offset="0" style="stop-color:#8C4C25"/>
				<stop  offset="1" style="stop-color:#DB781B"/>
			</linearGradient>
			<path fill="url(#SVGID_3_)" d="M36.581,0.706c20.049,0,36.36,16.311,36.36,36.36c0,20.049-16.311,36.36-36.36,36.36
				c-20.049,0-36.36-16.311-36.36-36.36C0.221,17.017,16.532,0.706,36.581,0.706 M36.581,0.106c-20.412,0-36.96,16.548-36.96,36.96
				c0,20.412,16.548,36.96,36.96,36.96c20.412,0,36.96-16.548,36.96-36.96C73.541,16.654,56.994,0.106,36.581,0.106L36.581,0.106z"
				/>
		</g>
	</g>
	<g id="Forma_1">
		<g>
			<linearGradient id="SVGID_4_" gradientUnits="userSpaceOnUse" x1="39.3489" y1="42.5214" x2="30.5651" y2="31.6742">
				<stop  offset="0" style="stop-color:#000000"/>
				<stop  offset="0" style="stop-color:#8C4C25"/>
				<stop  offset="1" style="stop-color:#DB781B"/>
			</linearGradient>
			<path fill-rule="evenodd" clip-rule="evenodd" fill="url(#SVGID_4_)" d="M43.283,37.161c-0.284-1.415-1.398-2.162-2.732-2.001
				c-0.54,0.065-1.005,0.311-1.427,0.651c-0.366,0.295-0.663,0.66-0.96,1.023c-0.052,0.064-0.074,0.058-0.123-0.002
				c-0.231-0.283-0.466-0.562-0.732-0.812c-0.642-0.602-1.375-0.956-2.266-0.871c-0.633,0.06-1.165,0.326-1.587,0.818
				c-0.192,0.225-0.328,0.484-0.437,0.781c-0.02-0.041-0.031-0.063-0.042-0.086c-0.102-0.212-0.228-0.406-0.39-0.574
				c-0.388-0.403-0.859-0.616-1.41-0.646c-0.573-0.031-1.093,0.097-1.518,0.519c-0.015,0.015-0.029,0.046-0.054,0.03
				c-0.023-0.014-0.008-0.043-0.004-0.065c0.087-0.508,0.177-1.015,0.259-1.523c0.014-0.089,0.049-0.102,0.126-0.102
				c0.93,0.003,1.859,0.001,2.789,0.003c0.072,0,0.09-0.02,0.089-0.092c-0.004-0.357-0.003-0.715-0.001-1.073
				c0-0.06-0.013-0.08-0.075-0.08c-1.297,0.002-2.595,0.002-3.892,0c-0.055,0-0.074,0.019-0.082,0.071
				c-0.025,0.159-0.054,0.317-0.081,0.476c-0.201,1.159-0.402,2.318-0.605,3.476c-0.012,0.066,0.002,0.086,0.07,0.085
				c0.391-0.003,0.781-0.002,1.172-0.001c0.043,0,0.074-0.009,0.101-0.048c0.287-0.415,0.685-0.58,1.172-0.545
				c0.338,0.025,0.626,0.158,0.838,0.432c0.32,0.412,0.373,0.886,0.25,1.381c-0.183,0.736-0.822,1.142-1.517,0.964
				c-0.498-0.127-0.765-0.481-0.848-0.99c-0.011-0.065-0.029-0.085-0.094-0.085c-0.433,0.003-0.867,0.003-1.3,0
				c-0.068,0-0.086,0.018-0.082,0.088c0.055,0.923,0.498,1.577,1.304,1.969c0.481,0.234,0.998,0.304,1.525,0.284
				c0.73-0.026,1.348-0.312,1.85-0.86c0.199-0.218,0.351-0.468,0.473-0.739c0.028,0.022,0.032,0.053,0.043,0.079
				c0.088,0.205,0.194,0.399,0.336,0.569c0.625,0.75,1.428,1.002,2.358,0.872c0.526-0.073,0.975-0.329,1.382-0.67
				c0.322-0.269,0.594-0.59,0.881-0.896c0.057-0.061,0.079-0.049,0.126,0.006c0.28,0.329,0.572,0.647,0.912,0.912
				c0.521,0.406,1.091,0.672,1.76,0.68c1.098,0.013,1.957-0.592,2.328-1.653C43.365,38.345,43.402,37.756,43.283,37.161z
				 M37.216,37.924c-0.379,0.441-0.794,0.832-1.338,1.05c-0.255,0.102-0.518,0.139-0.788,0.088
				c-0.492-0.092-0.831-0.485-0.875-1.007c-0.005-0.055-0.008-0.111-0.01-0.145c-0.001-0.375,0.107-0.69,0.334-0.957
				c0.292-0.343,0.665-0.403,1.075-0.299c0.269,0.068,0.504,0.216,0.726,0.38c0.321,0.238,0.597,0.525,0.869,0.817
				C37.23,37.876,37.244,37.892,37.216,37.924z M41.908,38.395c-0.187,0.486-0.609,0.737-1.131,0.687
				c-0.463-0.044-0.844-0.268-1.195-0.558c-0.212-0.175-0.398-0.377-0.579-0.585c-0.025-0.029-0.041-0.049-0.006-0.086
				c0.257-0.278,0.507-0.565,0.804-0.8c0.267-0.21,0.551-0.385,0.894-0.432c0.655-0.089,1.207,0.347,1.29,1.022
				c0.009,0.075,0.018,0.151,0.016,0.202C41.999,38.051,41.972,38.226,41.908,38.395z"/>
		</g>
	</g>
</g>
</svg>
