<?xml version="1.0" encoding="utf-8"?>
<!-- Generator: Adobe Illustrator 17.0.0, SVG Export Plug-In . SVG Version: 6.00 Build 0)  -->
<!DOCTYPE svg PUBLIC "-//W3C//DTD SVG 1.1//EN" "http://www.w3.org/Graphics/SVG/1.1/DTD/svg11.dtd">
<svg version="1.1" xmlns="http://www.w3.org/2000/svg" xmlns:xlink="http://www.w3.org/1999/xlink" x="0px" y="0px" width="73.92px"
	 height="73.92px" viewBox="0 0 73.92 73.92" enable-background="new 0 0 73.92 73.92" xml:space="preserve">
<g id="Facebook_копия_3_1_" enable-background="new    ">
	<g id="Forma_1_копия">
		<g>
			<linearGradient id="SVGID_1_" gradientUnits="userSpaceOnUse" x1="32.7009" y1="34.378" x2="41.2957" y2="34.378">
				<stop  offset="0" style="stop-color:#000000"/>
				<stop  offset="0" style="stop-color:#347FD1"/>
				<stop  offset="1" style="stop-color:#14559C"/>
			</linearGradient>
			<path fill-rule="evenodd" clip-rule="evenodd" fill="url(#SVGID_1_)" d="M40.972,26.494l-2.062-0.003
				c-2.316,0-3.812,1.524-3.812,3.882v1.79h-2.073c-0.179,0-0.324,0.144-0.324,0.322v2.593c0,0.178,0.145,0.322,0.324,0.322h2.073
				v6.544c0,0.178,0.145,0.322,0.324,0.322h2.704c0.179,0,0.324-0.144,0.324-0.322V35.4h2.423c0.179,0,0.324-0.144,0.324-0.322
				l0.001-2.593c0-0.085-0.034-0.167-0.095-0.227c-0.061-0.06-0.143-0.094-0.229-0.094H38.45v-1.517
				c0-0.729,0.175-1.099,1.132-1.099l1.389,0c0.179,0,0.324-0.144,0.324-0.322v-2.408C41.296,26.639,41.151,26.495,40.972,26.494z"
				/>
		</g>
	</g>
	<g id="Facebook_копия_3">
		<g>
			<linearGradient id="SVGID_2_" gradientUnits="userSpaceOnUse" x1="27.92" y1="46.5059" x2="46" y2="46.5059">
				<stop  offset="0" style="stop-color:#000000"/>
				<stop  offset="0" style="stop-color:#347FD1"/>
				<stop  offset="1" style="stop-color:#14559C"/>
			</linearGradient>
			<path fill-rule="evenodd" clip-rule="evenodd" fill="url(#SVGID_2_)" d="M27.92,47.903h0.243v-1.348h1.53v-0.222h-1.53v-1.054
				h1.56v-0.222H27.92V47.903z M31.002,45.791c-0.341,0-0.58,0.115-0.793,0.346l0.124,0.154c0.188-0.213,0.388-0.303,0.644-0.303
				c0.307,0,0.554,0.166,0.554,0.474v0.418c-0.179-0.201-0.413-0.294-0.699-0.294c-0.358,0-0.72,0.235-0.72,0.683
				c0,0.444,0.367,0.687,0.72,0.687c0.286,0,0.516-0.094,0.699-0.294v0.243h0.222v-1.451C31.752,45.992,31.42,45.791,31.002,45.791z
				 M31.531,47.498c-0.145,0.188-0.375,0.282-0.622,0.282c-0.341,0-0.563-0.218-0.563-0.508c0-0.294,0.222-0.512,0.563-0.512
				c0.247,0,0.477,0.098,0.622,0.286V47.498z M33.338,45.992c0.226,0,0.413,0.081,0.563,0.286l0.153-0.137
				c-0.166-0.209-0.371-0.35-0.729-0.35c-0.605,0-1.002,0.478-1.002,1.08c0,0.602,0.396,1.084,1.002,1.084
				c0.358,0,0.563-0.141,0.729-0.354l-0.153-0.137c-0.149,0.205-0.337,0.29-0.563,0.29c-0.482,0-0.776-0.388-0.776-0.883
				S32.857,45.992,33.338,45.992z M35.423,45.791c-0.571,0-0.993,0.482-0.993,1.08c0,0.636,0.43,1.084,1.031,1.084
				c0.341,0,0.601-0.119,0.806-0.333l-0.115-0.145c-0.175,0.188-0.413,0.286-0.673,0.286c-0.486,0-0.784-0.371-0.806-0.819h1.722
				v-0.06C36.395,46.29,36.05,45.791,35.423,45.791z M34.673,46.768c0.017-0.358,0.26-0.785,0.746-0.785
				c0.516,0,0.746,0.435,0.75,0.785H34.673z M37.904,45.791c-0.29,0-0.55,0.149-0.716,0.384v-1.118h-0.222v2.846h0.222v-0.329
				c0.145,0.213,0.409,0.38,0.716,0.38c0.546,0,0.921-0.418,0.921-1.079C38.825,46.222,38.454,45.791,37.904,45.791z M37.866,47.754
				c-0.286,0-0.558-0.171-0.678-0.367v-1.02c0.119-0.196,0.392-0.375,0.678-0.375c0.46,0,0.72,0.384,0.72,0.883
				S38.326,47.754,37.866,47.754z M40.27,45.791c-0.601,0-0.989,0.478-0.989,1.08c0,0.602,0.388,1.084,0.989,1.084
				c0.609,0,0.993-0.482,0.993-1.084C41.263,46.269,40.88,45.791,40.27,45.791z M40.27,47.754c-0.477,0-0.75-0.422-0.75-0.883
				c0-0.457,0.273-0.879,0.75-0.879c0.486,0,0.754,0.422,0.754,0.879C41.025,47.332,40.756,47.754,40.27,47.754z M42.705,45.791
				c-0.601,0-0.989,0.478-0.989,1.08c0,0.602,0.388,1.084,0.989,1.084c0.609,0,0.993-0.482,0.993-1.084
				C43.698,46.269,43.314,45.791,42.705,45.791z M42.705,47.754c-0.477,0-0.75-0.422-0.75-0.883c0-0.457,0.273-0.879,0.75-0.879
				c0.486,0,0.754,0.422,0.754,0.879C43.459,47.332,43.191,47.754,42.705,47.754z M46,45.842h-0.294l-1.215,1.178v-1.963H44.27
				v2.846h0.222v-0.619l0.384-0.363l0.823,0.981h0.298l-0.955-1.131L46,45.842z"/>
		</g>
	</g>
</g>
<g id="Эллипс_2_1_" enable-background="new    ">
	<g id="Эллипс_2">
		<g>
			<linearGradient id="SVGID_3_" gradientUnits="userSpaceOnUse" x1="57.1551" y1="61.9271" x2="16.5248" y2="11.7529">
				<stop  offset="0" style="stop-color:#000000"/>
				<stop  offset="0" style="stop-color:#347FD1"/>
				<stop  offset="1" style="stop-color:#14559C"/>
			</linearGradient>
			<path fill="url(#SVGID_3_)" d="M36.84,7.06c16.421,0,29.78,13.359,29.78,29.78c0,16.421-13.359,29.78-29.78,29.78
				c-16.421,0-29.78-13.359-29.78-29.78C7.06,20.419,20.419,7.06,36.84,7.06 M36.84,4.56c-17.828,0-32.28,14.452-32.28,32.28
				s14.452,32.28,32.28,32.28s32.28-14.452,32.28-32.28S54.668,4.56,36.84,4.56L36.84,4.56z"/>
		</g>
	</g>
</g>
<g id="Эллипс_2_копия_1_" enable-background="new    ">
	<g id="Эллипс_2_копия">
		<g>
			<linearGradient id="SVGID_4_" gradientUnits="userSpaceOnUse" x1="58.3635" y1="63.4193" x2="15.3165" y2="10.2607">
				<stop  offset="0" style="stop-color:#000000"/>
				<stop  offset="0" style="stop-color:#347FD1"/>
				<stop  offset="1" style="stop-color:#14559C"/>
			</linearGradient>
			<path fill="url(#SVGID_4_)" d="M36.84,3.64c18.307,0,33.2,14.893,33.2,33.2s-14.893,33.2-33.2,33.2s-33.2-14.893-33.2-33.2
				S18.533,3.64,36.84,3.64 M36.84,2.64c-18.888,0-34.2,15.312-34.2,34.2s15.312,34.2,34.2,34.2s34.2-15.312,34.2-34.2
				S55.728,2.64,36.84,2.64L36.84,2.64z"/>
		</g>
	</g>
</g>
<g id="Эллипс_2_копия_2_1_" enable-background="new    ">
	<g id="Эллипс_2_копия_2">
		<g>
			<linearGradient id="SVGID_5_" gradientUnits="userSpaceOnUse" x1="60.2205" y1="65.7906" x2="13.6996" y2="8.342">
				<stop  offset="0" style="stop-color:#000000"/>
				<stop  offset="0" style="stop-color:#347FD1"/>
				<stop  offset="1" style="stop-color:#14559C"/>
			</linearGradient>
			<path fill="url(#SVGID_5_)" d="M36.96,0.706c20.049,0,36.36,16.311,36.36,36.36c0,20.049-16.311,36.36-36.36,36.36
				S0.6,57.115,0.6,37.066C0.6,17.017,16.911,0.706,36.96,0.706 M36.96,0.106C16.548,0.106,0,16.654,0,37.066
				c0,20.412,16.548,36.96,36.96,36.96s36.96-16.548,36.96-36.96C73.92,16.654,57.372,0.106,36.96,0.106L36.96,0.106z"/>
		</g>
	</g>
</g>
</svg>
