<?xml version="1.0" encoding="utf-8"?>
<!-- Generator: Adobe Illustrator 17.0.0, SVG Export Plug-In . SVG Version: 6.00 Build 0)  -->
<!DOCTYPE svg PUBLIC "-//W3C//DTD SVG 1.1//EN" "http://www.w3.org/Graphics/SVG/1.1/DTD/svg11.dtd">
<svg version="1.1" xmlns="http://www.w3.org/2000/svg" xmlns:xlink="http://www.w3.org/1999/xlink" x="0px" y="0px" width="73.92px"
	 height="73.92px" viewBox="0 0 73.92 73.92" enable-background="new 0 0 73.92 73.92" xml:space="preserve">
<g id="Facebook_копия_3_1_" enable-background="new    ">
</g>
<g id="Эллипс_2_1_" enable-background="new    ">
	<g id="Эллипс_2">
		<g>
			<linearGradient id="SVGID_1_" gradientUnits="userSpaceOnUse" x1="4.56" y1="36.84" x2="69.12" y2="36.84">
				<stop  offset="0" style="stop-color:#000000"/>
				<stop  offset="0" style="stop-color:#6A4633"/>
				<stop  offset="1" style="stop-color:#7C5641"/>
			</linearGradient>
			<path fill="url(#SVGID_1_)" d="M36.84,7.06c16.421,0,29.78,13.359,29.78,29.78c0,16.421-13.359,29.78-29.78,29.78
				c-16.421,0-29.78-13.359-29.78-29.78C7.06,20.419,20.419,7.06,36.84,7.06 M36.84,4.56c-17.828,0-32.28,14.452-32.28,32.28
				s14.452,32.28,32.28,32.28s32.28-14.452,32.28-32.28S54.668,4.56,36.84,4.56L36.84,4.56z"/>
		</g>
	</g>
</g>
<g id="Эллипс_2_копия_1_" enable-background="new    ">
	<g id="Эллипс_2_копия">
		<g>
			<linearGradient id="SVGID_2_" gradientUnits="userSpaceOnUse" x1="2.64" y1="36.84" x2="71.04" y2="36.84">
				<stop  offset="0" style="stop-color:#000000"/>
				<stop  offset="0" style="stop-color:#6A4633"/>
				<stop  offset="1" style="stop-color:#7C5641"/>
			</linearGradient>
			<path fill="url(#SVGID_2_)" d="M36.84,3.64c18.307,0,33.2,14.893,33.2,33.2s-14.893,33.2-33.2,33.2s-33.2-14.893-33.2-33.2
				S18.533,3.64,36.84,3.64 M36.84,2.64c-18.888,0-34.2,15.312-34.2,34.2s15.312,34.2,34.2,34.2s34.2-15.312,34.2-34.2
				S55.728,2.64,36.84,2.64L36.84,2.64z"/>
		</g>
	</g>
</g>
<g id="Эллипс_2_копия_2_1_" enable-background="new    ">
	<g id="Эллипс_2_копия_2">
		<g>
			<linearGradient id="SVGID_3_" gradientUnits="userSpaceOnUse" x1="-0.379" y1="37.0663" x2="73.5411" y2="37.0663">
				<stop  offset="0" style="stop-color:#000000"/>
				<stop  offset="0" style="stop-color:#6A4633"/>
				<stop  offset="1" style="stop-color:#7C5641"/>
			</linearGradient>
			<path fill="url(#SVGID_3_)" d="M36.581,0.706c20.049,0,36.36,16.311,36.36,36.36s-16.311,36.36-36.36,36.36
				s-36.36-16.311-36.36-36.36S16.532,0.706,36.581,0.706 M36.581,0.106c-20.412,0-36.96,16.548-36.96,36.96
				s16.548,36.96,36.96,36.96s36.96-16.548,36.96-36.96S56.993,0.106,36.581,0.106L36.581,0.106z"/>
		</g>
	</g>
	<g id="Forma_1">
		<g>
			<linearGradient id="SVGID_4_" gradientUnits="userSpaceOnUse" x1="28.9336" y1="33.2415" x2="43.5019" y2="33.2415">
				<stop  offset="0" style="stop-color:#000000"/>
				<stop  offset="0" style="stop-color:#6A4633"/>
				<stop  offset="1" style="stop-color:#7C5641"/>
			</linearGradient>
			<path fill-rule="evenodd" clip-rule="evenodd" fill="url(#SVGID_4_)" d="M43.497,27.469c-0.09-0.869-0.809-1.519-1.683-1.519
				c-3.729,0-7.459,0-11.189,0.001c-0.102,0-0.206,0.008-0.305,0.027c-0.826,0.157-1.387,0.842-1.387,1.683v5.583
				c0,1.857,0,3.714,0.001,5.572c0,0.094,0.007,0.189,0.019,0.283c0.108,0.808,0.825,1.434,1.64,1.434c3.75,0,7.5,0,11.25,0
				c0.065,0,0.128-0.004,0.193-0.011c0.824-0.096,1.465-0.818,1.465-1.648c0.001-3.754,0.001-7.508,0-11.262
				C43.502,27.564,43.503,27.516,43.497,27.469z M36.218,30.438c1.548,0,2.801,1.252,2.803,2.803c0.002,1.55-1.25,2.805-2.798,2.806
				c-1.552,0-2.807-1.255-2.805-2.807C33.42,31.694,34.674,30.439,36.218,30.438z M41.825,38.241c0,0.379-0.23,0.612-0.609,0.612
				h-9.338c-0.224,0-0.447,0.001-0.672,0c-0.351,0-0.589-0.239-0.589-0.59c0-2.024,0-4.048,0-6.072v-0.065h1.264
				c-0.283,1.143-0.153,2.236,0.406,3.27c0.408,0.755,0.994,1.341,1.741,1.763c1.475,0.833,3.31,0.755,4.714-0.206
				c0.779-0.533,1.339-1.243,1.673-2.127c0.333-0.882,0.376-1.783,0.144-2.702h1.266c0.001,0.025,0.001,0.049,0.001,0.073V38.241z
				 M41.825,29.864c-0.001,0.332-0.245,0.574-0.577,0.574h-0.825c-0.276,0-0.554,0-0.83,0c-0.319,0-0.567-0.238-0.57-0.558
				c-0.004-0.562-0.004-1.124,0-1.686c0.002-0.323,0.249-0.56,0.573-0.56c0.553,0,1.104,0,1.656,0c0.327,0,0.571,0.244,0.572,0.573
				C41.826,28.759,41.826,29.312,41.825,29.864z"/>
		</g>
	</g>
	<g id="Instagram">
		<g>
			<linearGradient id="SVGID_5_" gradientUnits="userSpaceOnUse" x1="27.009" y1="45.8605" x2="44.5523" y2="45.8605">
				<stop  offset="0" style="stop-color:#000000"/>
				<stop  offset="0" style="stop-color:#6A4633"/>
				<stop  offset="1" style="stop-color:#7C5641"/>
			</linearGradient>
			<path fill-rule="evenodd" clip-rule="evenodd" fill="url(#SVGID_5_)" d="M27.009,46.881h0.247V43.99h-0.247V46.881z
				 M28.945,44.736c-0.303,0-0.602,0.186-0.753,0.368v-0.316h-0.225v2.094h0.225v-1.582c0.134-0.191,0.411-0.36,0.68-0.36
				c0.303,0,0.507,0.121,0.507,0.524v1.417h0.225v-1.465C29.603,44.944,29.369,44.736,28.945,44.736z M30.391,45.308
				c0-0.217,0.199-0.381,0.524-0.381c0.277,0,0.502,0.113,0.623,0.277l0.126-0.16c-0.152-0.169-0.39-0.308-0.749-0.308
				c-0.472,0-0.745,0.26-0.745,0.581c0,0.75,1.321,0.429,1.321,1.001c0,0.243-0.208,0.425-0.559,0.425
				c-0.294,0-0.541-0.139-0.675-0.308l-0.134,0.169c0.208,0.23,0.468,0.329,0.805,0.329c0.524,0,0.784-0.277,0.784-0.615
				C31.712,45.512,30.391,45.832,30.391,45.308z M32.782,46.73c-0.147,0-0.216-0.117-0.216-0.286v-1.456h0.424v-0.199h-0.424v-0.572
				h-0.229v0.572h-0.346v0.199h0.346v1.491c0,0.286,0.134,0.455,0.411,0.455c0.173,0,0.273-0.052,0.355-0.13l-0.087-0.173
				C32.968,46.682,32.881,46.73,32.782,46.73z M34.276,44.736c-0.346,0-0.589,0.117-0.805,0.351l0.126,0.156
				c0.19-0.217,0.394-0.308,0.654-0.308c0.312,0,0.563,0.169,0.563,0.481v0.425c-0.182-0.204-0.42-0.299-0.71-0.299
				c-0.364,0-0.732,0.238-0.732,0.693c0,0.451,0.372,0.698,0.732,0.698c0.29,0,0.524-0.095,0.71-0.299v0.247h0.225v-1.474
				C35.038,44.939,34.7,44.736,34.276,44.736z M34.813,46.47c-0.147,0.191-0.381,0.286-0.632,0.286
				c-0.346,0-0.571-0.221-0.571-0.516c0-0.299,0.225-0.52,0.571-0.52c0.251,0,0.485,0.1,0.632,0.29V46.47z M37.281,45.126
				c-0.169-0.238-0.429-0.39-0.727-0.39c-0.554,0-0.935,0.433-0.935,1.097c0,0.672,0.381,1.092,0.935,1.092
				c0.312,0,0.58-0.178,0.727-0.39v0.329c0,0.481-0.333,0.672-0.714,0.672c-0.312,0-0.511-0.078-0.693-0.295l-0.13,0.173
				c0.247,0.251,0.472,0.316,0.823,0.316c0.511,0,0.944-0.23,0.944-0.871v-2.072h-0.229V45.126z M37.281,46.339
				c-0.121,0.204-0.398,0.381-0.688,0.381c-0.463,0-0.732-0.381-0.732-0.888c0-0.507,0.268-0.893,0.732-0.893
				c0.29,0,0.567,0.178,0.688,0.381V46.339z M38.434,45.148v-0.36h-0.225v2.094h0.225v-1.526c0.095-0.182,0.381-0.373,0.593-0.373
				c0.043,0,0.074,0,0.113,0.009v-0.247C38.849,44.744,38.611,44.913,38.434,45.148z M40.374,44.736
				c-0.346,0-0.589,0.117-0.805,0.351l0.126,0.156c0.191-0.217,0.394-0.308,0.654-0.308c0.312,0,0.563,0.169,0.563,0.481v0.425
				c-0.182-0.204-0.42-0.299-0.71-0.299c-0.364,0-0.732,0.238-0.732,0.693c0,0.451,0.372,0.698,0.732,0.698
				c0.29,0,0.524-0.095,0.71-0.299v0.247h0.225v-1.474C41.136,44.939,40.798,44.736,40.374,44.736z M40.91,46.47
				c-0.147,0.191-0.381,0.286-0.632,0.286c-0.346,0-0.572-0.221-0.572-0.516c0-0.299,0.225-0.52,0.572-0.52
				c0.251,0,0.485,0.1,0.632,0.29V46.47z M43.981,44.736c-0.294,0-0.576,0.199-0.693,0.394c-0.052-0.204-0.225-0.394-0.55-0.394
				c-0.303,0-0.589,0.234-0.675,0.368v-0.316h-0.225v2.094h0.225v-1.582c0.126-0.191,0.377-0.36,0.597-0.36
				c0.299,0,0.42,0.182,0.42,0.477v1.465h0.229v-1.586c0.117-0.191,0.372-0.355,0.598-0.355c0.294,0,0.42,0.182,0.42,0.477v1.465
				h0.225v-1.508C44.552,44.952,44.366,44.736,43.981,44.736z"/>
		</g>
	</g>
</g>
</svg>
