<?xml version="1.0" encoding="utf-8"?>
<!-- Generator: Adobe Illustrator 17.0.0, SVG Export Plug-In . SVG Version: 6.00 Build 0)  -->
<!DOCTYPE svg PUBLIC "-//W3C//DTD SVG 1.1//EN" "http://www.w3.org/Graphics/SVG/1.1/DTD/svg11.dtd">
<svg version="1.1" id="Слой_1" xmlns="http://www.w3.org/2000/svg" xmlns:xlink="http://www.w3.org/1999/xlink" x="0px" y="0px"
	 width="73.92px" height="73.92px" viewBox="0 0 73.92 73.92" enable-background="new 0 0 73.92 73.92" xml:space="preserve">
<g id="Эллипс_2_1_">
	<g id="Эллипс_2">
		<g>
			<path fill="#35A3C5" d="M36.84,7.06c16.421,0,29.78,13.359,29.78,29.78S53.261,66.62,36.84,66.62S7.06,53.261,7.06,36.84
				C7.06,20.419,20.419,7.06,36.84,7.06 M36.84,4.56c-17.828,0-32.28,14.452-32.28,32.28s14.452,32.28,32.28,32.28
				s32.28-14.452,32.28-32.28S54.668,4.56,36.84,4.56L36.84,4.56z"/>
		</g>
	</g>
</g>
<g id="Эллипс_2_копия_1_">
	<g id="Эллипс_2_копия">
		<g>
			<path fill="#35A3C5" d="M36.84,3.64c18.307,0,33.2,14.893,33.2,33.2s-14.893,33.2-33.2,33.2s-33.2-14.893-33.2-33.2
				S18.533,3.64,36.84,3.64 M36.84,2.64c-18.888,0-34.2,15.312-34.2,34.2s15.312,34.2,34.2,34.2s34.2-15.312,34.2-34.2
				S55.728,2.64,36.84,2.64L36.84,2.64z"/>
		</g>
	</g>
</g>
<g id="Эллипс_2_копия_2_1_">
	<g id="Эллипс_2_копия_2">
		<g>
			<path fill="#35A3C5" d="M36.96,0.706c20.049,0,36.36,16.311,36.36,36.36s-16.311,36.36-36.36,36.36S0.6,57.115,0.6,37.066
				S16.911,0.706,36.96,0.706 M36.96,0.106C16.548,0.106,0,16.654,0,37.066s16.548,36.96,36.96,36.96s36.96-16.548,36.96-36.96
				S57.372,0.106,36.96,0.106L36.96,0.106z"/>
		</g>
	</g>
</g>
<path fill="#35A3C5" d="M42.42,32.288c0,3.082-4.463,9.978-5.58,9.978c-1.245,0-5.58-6.896-5.58-9.978c0-3.082,2.498-5.58,5.58-5.58
	C39.922,26.708,42.42,29.206,42.42,32.288z"/>
<circle fill="#FFFFFF" cx="36.764" cy="32.226" r="4.566"/>
<path fill="#DA543D" d="M36.764,29.533c-0.265,0-0.521,0.039-0.763,0.11c0.392,0.165,0.668,0.553,0.668,1.006
	c0,0.603-0.488,1.091-1.091,1.091c-0.559,0-1.02-0.421-1.083-0.963c-0.268,0.419-0.424,0.916-0.424,1.449
	c0,1.488,1.206,2.693,2.693,2.693c1.487,0,2.693-1.206,2.693-2.693C39.457,30.738,38.251,29.533,36.764,29.533z"/>
<g id="Periscope">
	<g>
		<path fill-rule="evenodd" clip-rule="evenodd" fill="#35A3C5" d="M28.728,45.057h-1.116v2.981h0.254V46.8h0.862
			c0.567,0,0.897-0.402,0.897-0.871C29.625,45.459,29.299,45.057,28.728,45.057z M28.701,46.567h-0.835v-1.278h0.835
			c0.393,0,0.656,0.264,0.656,0.639C29.357,46.304,29.094,46.567,28.701,46.567z M31.014,45.826c-0.598,0-1.04,0.505-1.04,1.131
			c0,0.666,0.451,1.135,1.08,1.135c0.357,0,0.629-0.125,0.844-0.349l-0.12-0.152c-0.183,0.197-0.433,0.299-0.705,0.299
			c-0.509,0-0.821-0.389-0.844-0.858h1.803V46.97C32.032,46.348,31.67,45.826,31.014,45.826z M30.228,46.849
			c0.018-0.375,0.272-0.822,0.781-0.822c0.54,0,0.781,0.456,0.786,0.822H30.228z M32.863,46.25v-0.371h-0.232v2.158h0.232v-1.573
			c0.098-0.188,0.393-0.384,0.612-0.384c0.045,0,0.076,0,0.116,0.009v-0.255C33.291,45.835,33.046,46.009,32.863,46.25z
			 M34.046,48.038h0.232v-2.158h-0.232V48.038z M34.162,45.187c-0.094,0-0.179,0.076-0.179,0.174s0.085,0.179,0.179,0.179
			c0.098,0,0.179-0.08,0.179-0.179S34.26,45.187,34.162,45.187z M35.091,46.415c0-0.223,0.205-0.393,0.54-0.393
			c0.286,0,0.518,0.116,0.643,0.286l0.129-0.165c-0.156-0.174-0.402-0.317-0.772-0.317c-0.487,0-0.768,0.268-0.768,0.599
			c0,0.773,1.362,0.442,1.362,1.032c0,0.25-0.214,0.438-0.576,0.438c-0.304,0-0.558-0.143-0.696-0.317l-0.138,0.174
			c0.214,0.237,0.482,0.34,0.83,0.34c0.54,0,0.808-0.286,0.808-0.635C36.452,46.626,35.091,46.956,35.091,46.415z M37.988,46.036
			c0.237,0,0.433,0.085,0.589,0.299l0.161-0.143c-0.174-0.219-0.388-0.366-0.763-0.366c-0.634,0-1.049,0.5-1.049,1.131
			c0,0.63,0.415,1.135,1.049,1.135c0.375,0,0.589-0.147,0.763-0.371l-0.161-0.143c-0.156,0.214-0.353,0.304-0.589,0.304
			c-0.504,0-0.812-0.407-0.812-0.925S37.484,46.036,37.988,46.036z M40.167,45.826c-0.629,0-1.036,0.5-1.036,1.131
			c0,0.63,0.406,1.135,1.036,1.135c0.638,0,1.04-0.505,1.04-1.135C41.207,46.326,40.806,45.826,40.167,45.826z M40.167,47.881
			c-0.5,0-0.786-0.442-0.786-0.925c0-0.478,0.286-0.921,0.786-0.921c0.509,0,0.79,0.442,0.79,0.921
			C40.957,47.439,40.676,47.881,40.167,47.881z M42.788,45.826c-0.321,0-0.598,0.174-0.75,0.393v-0.34h-0.232v2.981h0.232v-1.171
			c0.174,0.246,0.446,0.402,0.75,0.402c0.576,0,0.964-0.447,0.964-1.135C43.752,46.264,43.364,45.826,42.788,45.826z M42.748,47.881
			c-0.299,0-0.585-0.188-0.71-0.393V46.42c0.125-0.206,0.411-0.384,0.71-0.384c0.482,0,0.754,0.398,0.754,0.921
			S43.23,47.881,42.748,47.881z M46.271,46.97c0-0.621-0.362-1.144-1.018-1.144c-0.598,0-1.04,0.505-1.04,1.131
			c0,0.666,0.451,1.135,1.08,1.135c0.357,0,0.629-0.125,0.844-0.349l-0.121-0.152c-0.183,0.197-0.433,0.299-0.705,0.299
			c-0.509,0-0.821-0.389-0.844-0.858h1.803V46.97z M44.467,46.849c0.018-0.375,0.272-0.822,0.781-0.822
			c0.54,0,0.781,0.456,0.786,0.822H44.467z"/>
	</g>
</g>
</svg>
