<?xml version="1.0" encoding="utf-8"?>
<!-- Generator: Adobe Illustrator 17.0.0, SVG Export Plug-In . SVG Version: 6.00 Build 0)  -->
<!DOCTYPE svg PUBLIC "-//W3C//DTD SVG 1.1//EN" "http://www.w3.org/Graphics/SVG/1.1/DTD/svg11.dtd">
<svg version="1.1" xmlns="http://www.w3.org/2000/svg" xmlns:xlink="http://www.w3.org/1999/xlink" x="0px" y="0px" width="73.92px"
	 height="73.92px" viewBox="0 0 73.92 73.92" enable-background="new 0 0 73.92 73.92" xml:space="preserve">
<g id="Facebook_копия_3_1_" enable-background="new    ">
</g>
<g id="Эллипс_2_1_" enable-background="new    ">
	<g id="Эллипс_2">
		<g>
			<linearGradient id="SVGID_1_" gradientUnits="userSpaceOnUse" x1="4.56" y1="36.84" x2="69.12" y2="36.84">
				<stop  offset="0" style="stop-color:#000000"/>
				<stop  offset="0" style="stop-color:#3A65B3"/>
				<stop  offset="1" style="stop-color:#1B4695"/>
			</linearGradient>
			<path fill="url(#SVGID_1_)" d="M36.84,7.06c16.421,0,29.78,13.359,29.78,29.78c0,16.421-13.359,29.78-29.78,29.78
				c-16.421,0-29.78-13.359-29.78-29.78C7.06,20.419,20.419,7.06,36.84,7.06 M36.84,4.56c-17.828,0-32.28,14.452-32.28,32.28
				s14.452,32.28,32.28,32.28s32.28-14.452,32.28-32.28S54.668,4.56,36.84,4.56L36.84,4.56z"/>
		</g>
	</g>
</g>
<g id="Эллипс_2_копия_1_" enable-background="new    ">
	<g id="Эллипс_2_копия">
		<g>
			<linearGradient id="SVGID_2_" gradientUnits="userSpaceOnUse" x1="2.64" y1="36.84" x2="71.04" y2="36.84">
				<stop  offset="0" style="stop-color:#000000"/>
				<stop  offset="0" style="stop-color:#3A65B3"/>
				<stop  offset="1" style="stop-color:#1B4695"/>
			</linearGradient>
			<path fill="url(#SVGID_2_)" d="M36.84,3.64c18.307,0,33.2,14.893,33.2,33.2s-14.893,33.2-33.2,33.2s-33.2-14.893-33.2-33.2
				S18.533,3.64,36.84,3.64 M36.84,2.64c-18.888,0-34.2,15.312-34.2,34.2s15.312,34.2,34.2,34.2s34.2-15.312,34.2-34.2
				S55.728,2.64,36.84,2.64L36.84,2.64z"/>
		</g>
	</g>
</g>
<g id="Эллипс_2_копия_2_1_" enable-background="new    ">
	<g id="Эллипс_2_копия_2">
		<g>
			<linearGradient id="SVGID_3_" gradientUnits="userSpaceOnUse" x1="-0.3789" y1="37.0663" x2="73.5411" y2="37.0663">
				<stop  offset="0" style="stop-color:#000000"/>
				<stop  offset="0" style="stop-color:#3A65B3"/>
				<stop  offset="1" style="stop-color:#1B4695"/>
			</linearGradient>
			<path fill="url(#SVGID_3_)" d="M36.581,0.706c20.049,0,36.36,16.311,36.36,36.36c0,20.049-16.311,36.36-36.36,36.36
				c-20.049,0-36.36-16.311-36.36-36.36C0.221,17.017,16.532,0.706,36.581,0.706 M36.581,0.106c-20.412,0-36.96,16.548-36.96,36.96
				c0,20.412,16.548,36.96,36.96,36.96c20.412,0,36.96-16.548,36.96-36.96C73.541,16.654,56.994,0.106,36.581,0.106L36.581,0.106z"
				/>
		</g>
	</g>
	<g id="Forma_1_копия">
		<g>
			<linearGradient id="SVGID_4_" gradientUnits="userSpaceOnUse" x1="28.8351" y1="36.84" x2="42.4021" y2="36.84">
				<stop  offset="0" style="stop-color:#000000"/>
				<stop  offset="0" style="stop-color:#3A65B3"/>
				<stop  offset="1" style="stop-color:#1B4695"/>
			</linearGradient>
			<path fill-rule="evenodd" clip-rule="evenodd" fill="url(#SVGID_4_)" d="M42.284,39.922c-0.236-0.431-0.685-0.96-1.349-1.586
				l-0.014-0.014l-0.007-0.007l-0.007-0.007H40.9c-0.301-0.292-0.492-0.488-0.572-0.589c-0.146-0.191-0.179-0.385-0.099-0.581
				c0.056-0.149,0.268-0.462,0.635-0.941c0.193-0.253,0.346-0.457,0.459-0.61c0.815-1.101,1.168-1.804,1.06-2.11l-0.042-0.072
				c-0.028-0.043-0.101-0.083-0.219-0.119c-0.118-0.036-0.268-0.042-0.452-0.018l-2.034,0.015c-0.047-0.005-0.094-0.004-0.141,0.003
				c-0.047,0.007-0.078,0.015-0.092,0.022c-0.014,0.007-0.026,0.013-0.035,0.018l-0.028,0.022c-0.024,0.014-0.049,0.039-0.078,0.075
				c-0.028,0.036-0.052,0.078-0.071,0.126c-0.221,0.579-0.473,1.117-0.756,1.615c-0.174,0.297-0.334,0.554-0.48,0.772
				c-0.146,0.218-0.268,0.378-0.367,0.481c-0.099,0.103-0.188,0.186-0.268,0.248c-0.08,0.062-0.141,0.089-0.184,0.079
				c-0.042-0.01-0.083-0.019-0.12-0.029c-0.066-0.043-0.119-0.101-0.159-0.176c-0.04-0.074-0.067-0.167-0.081-0.28
				c-0.014-0.112-0.022-0.209-0.025-0.291c-0.003-0.081-0.001-0.196,0.004-0.345c0.005-0.148,0.007-0.249,0.007-0.301
				c0-0.182,0.004-0.379,0.011-0.592c0.007-0.213,0.013-0.382,0.018-0.506c0.005-0.124,0.007-0.256,0.007-0.395
				c0-0.139-0.008-0.248-0.025-0.327c-0.017-0.079-0.041-0.155-0.074-0.23c-0.033-0.074-0.081-0.132-0.145-0.172
				c-0.064-0.041-0.142-0.073-0.237-0.097c-0.25-0.058-0.568-0.088-0.954-0.093c-0.876-0.009-1.439,0.048-1.688,0.172
				c-0.099,0.053-0.188,0.124-0.268,0.215c-0.085,0.105-0.097,0.163-0.035,0.172c0.283,0.043,0.483,0.146,0.6,0.309l0.042,0.086
				c0.033,0.062,0.066,0.172,0.099,0.33c0.033,0.158,0.054,0.333,0.064,0.524c0.023,0.349,0.023,0.648,0,0.897
				c-0.024,0.249-0.046,0.443-0.067,0.581c-0.021,0.139-0.053,0.251-0.095,0.337c-0.042,0.086-0.071,0.139-0.085,0.158
				c-0.014,0.019-0.026,0.031-0.035,0.036c-0.061,0.024-0.125,0.036-0.191,0.036s-0.146-0.034-0.24-0.101
				c-0.094-0.067-0.192-0.159-0.293-0.276c-0.101-0.117-0.215-0.281-0.343-0.492c-0.127-0.21-0.259-0.459-0.396-0.746l-0.113-0.208
				c-0.071-0.134-0.167-0.329-0.29-0.585c-0.122-0.256-0.231-0.504-0.325-0.743c-0.038-0.1-0.094-0.177-0.17-0.23l-0.035-0.022
				c-0.024-0.019-0.061-0.039-0.113-0.061c-0.052-0.022-0.106-0.037-0.162-0.047l-1.935,0.014c-0.198,0-0.332,0.046-0.403,0.137
				l-0.028,0.043c-0.014,0.024-0.021,0.062-0.021,0.115c0,0.053,0.014,0.117,0.042,0.194c0.283,0.675,0.59,1.326,0.922,1.953
				c0.332,0.627,0.62,1.132,0.865,1.515c0.245,0.383,0.494,0.744,0.749,1.084c0.254,0.34,0.423,0.557,0.505,0.653
				c0.082,0.096,0.147,0.168,0.194,0.215l0.177,0.172c0.113,0.115,0.279,0.252,0.498,0.413s0.461,0.318,0.728,0.474
				c0.266,0.156,0.576,0.282,0.929,0.381c0.353,0.098,0.697,0.138,1.031,0.118h0.812c0.165-0.014,0.29-0.067,0.374-0.158
				l0.028-0.036c0.019-0.029,0.036-0.073,0.053-0.133c0.016-0.06,0.025-0.126,0.025-0.197c-0.005-0.206,0.011-0.392,0.046-0.556
				c0.035-0.165,0.075-0.289,0.12-0.373c0.045-0.083,0.095-0.154,0.152-0.212c0.056-0.057,0.096-0.092,0.12-0.104
				c0.024-0.012,0.042-0.02,0.056-0.025c0.113-0.038,0.246-0.001,0.399,0.111c0.153,0.113,0.297,0.251,0.431,0.416
				c0.134,0.165,0.295,0.35,0.484,0.556c0.188,0.206,0.353,0.359,0.494,0.459l0.141,0.086c0.094,0.057,0.216,0.11,0.367,0.158
				c0.151,0.048,0.283,0.06,0.396,0.036l1.808-0.029c0.179,0,0.318-0.03,0.417-0.09c0.099-0.059,0.158-0.126,0.177-0.197
				c0.019-0.072,0.02-0.153,0.004-0.244c-0.017-0.091-0.033-0.154-0.049-0.19C42.314,39.976,42.299,39.946,42.284,39.922z"/>
		</g>
	</g>
</g>
</svg>
