<?xml version="1.0" encoding="utf-8"?>
<!-- Generator: Adobe Illustrator 17.0.0, SVG Export Plug-In . SVG Version: 6.00 Build 0)  -->
<!DOCTYPE svg PUBLIC "-//W3C//DTD SVG 1.1//EN" "http://www.w3.org/Graphics/SVG/1.1/DTD/svg11.dtd">
<svg version="1.1" xmlns="http://www.w3.org/2000/svg" xmlns:xlink="http://www.w3.org/1999/xlink" x="0px" y="0px" width="73.92px"
	 height="73.92px" viewBox="0 0 73.92 73.92" enable-background="new 0 0 73.92 73.92" xml:space="preserve">
<g id="Facebook_копия_3_1_" enable-background="new    ">
</g>
<g id="Эллипс_2_1_" enable-background="new    ">
	<g id="Эллипс_2">
		<g>
			<linearGradient id="SVGID_1_" gradientUnits="userSpaceOnUse" x1="57.1551" y1="61.9271" x2="16.5248" y2="11.7529">
				<stop  offset="0" style="stop-color:#000000"/>
				<stop  offset="0" style="stop-color:#E54148"/>
				<stop  offset="1" style="stop-color:#BE2A31"/>
			</linearGradient>
			<path fill="url(#SVGID_1_)" d="M36.84,7.06c16.421,0,29.78,13.359,29.78,29.78c0,16.421-13.359,29.78-29.78,29.78
				c-16.421,0-29.78-13.359-29.78-29.78C7.06,20.419,20.419,7.06,36.84,7.06 M36.84,4.56c-17.828,0-32.28,14.452-32.28,32.28
				s14.452,32.28,32.28,32.28s32.28-14.452,32.28-32.28S54.668,4.56,36.84,4.56L36.84,4.56z"/>
		</g>
	</g>
	<g id="Forma_1_2_">
		<g>
			<linearGradient id="SVGID_2_" gradientUnits="userSpaceOnUse" x1="30.9262" y1="33.7444" x2="42.0117" y2="33.7444">
				<stop  offset="0" style="stop-color:#000000"/>
				<stop  offset="0" style="stop-color:#E54148"/>
				<stop  offset="1" style="stop-color:#BE2A31"/>
			</linearGradient>
			<path fill-rule="evenodd" clip-rule="evenodd" fill="url(#SVGID_2_)" d="M37.872,31.964c0.005,0.045,0.021,0.091,0.04,0.134
				c0.055,0.097,0.119,0.17,0.191,0.219c0.083,0.054,0.189,0.081,0.316,0.081c0.106,0,0.202-0.027,0.291-0.081
				c0.072-0.059,0.146-0.143,0.224-0.25l-0.015,0.267h0.844v-3.301h-0.662v2.572c0,0.066-0.029,0.121-0.085,0.17
				c-0.055,0.048-0.121,0.073-0.199,0.073c-0.083,0-0.148-0.025-0.2-0.073c-0.05-0.05-0.074-0.105-0.074-0.17v-2.572H37.83v2.579
				c0,0.093,0.006,0.165,0.016,0.219C37.858,31.874,37.866,31.919,37.872,31.964z M35.315,31.103c0,0.298,0.018,0.516,0.05,0.663
				c0.045,0.157,0.102,0.277,0.167,0.365c0.065,0.112,0.167,0.191,0.307,0.233c0.148,0.054,0.316,0.081,0.497,0.081
				c0.178,0,0.334-0.031,0.474-0.096c0.116-0.043,0.223-0.133,0.322-0.267c0.1-0.151,0.154-0.289,0.167-0.412
				c0.031-0.136,0.049-0.357,0.049-0.665v-0.848c0-0.227-0.018-0.408-0.049-0.543c-0.033-0.125-0.083-0.234-0.15-0.333
				c-0.088-0.135-0.202-0.229-0.339-0.283c-0.14-0.064-0.31-0.097-0.515-0.097c-0.232,0-0.423,0.054-0.573,0.162
				c-0.15,0.087-0.256,0.23-0.325,0.43c-0.054,0.192-0.083,0.439-0.083,0.736V31.103z M35.996,29.792
				c0-0.097,0.035-0.178,0.105-0.246c0.068-0.068,0.147-0.102,0.236-0.102c0.087,0,0.167,0.034,0.236,0.102
				c0.07,0.068,0.103,0.149,0.103,0.246v1.756c0,0.091-0.033,0.171-0.103,0.234c-0.069,0.065-0.149,0.097-0.237,0.097
				c-0.093,0-0.174-0.034-0.24-0.1c-0.067-0.068-0.1-0.145-0.1-0.231V29.792z M41.867,34.061c-0.097-0.191-0.228-0.356-0.394-0.493
				c-0.166-0.137-0.359-0.249-0.58-0.332c-0.222-0.083-0.456-0.125-0.704-0.125h-7.444c-0.248,0-0.482,0.042-0.701,0.125
				c-0.219,0.083-0.411,0.195-0.577,0.332c-0.165,0.136-0.299,0.302-0.395,0.493c-0.097,0.191-0.145,0.392-0.145,0.603v3.552
				c0,0.222,0.048,0.424,0.144,0.61c0.097,0.187,0.23,0.35,0.395,0.491c0.166,0.141,0.358,0.251,0.577,0.332
				c0.219,0.08,0.453,0.121,0.701,0.121h7.444c0.254,0,0.49-0.041,0.709-0.121c0.218-0.081,0.41-0.191,0.576-0.332
				c0.167-0.141,0.298-0.304,0.394-0.491c0.097-0.186,0.145-0.388,0.145-0.61v-3.552C42.012,34.453,41.964,34.252,41.867,34.061z
				 M33.241,38.612H32.48v-3.763h-0.79v-0.55h2.465v0.566h-0.913V38.612z M36.013,38.61l-0.63-0.016l0.015-0.396
				c-0.043,0.075-0.114,0.148-0.211,0.215c-0.096,0.067-0.2,0.118-0.315,0.156c-0.112,0.039-0.229,0.058-0.35,0.058
				c-0.118,0-0.221-0.028-0.309-0.082c-0.096-0.059-0.148-0.14-0.159-0.239c-0.011-0.1-0.022-0.192-0.032-0.28
				c-0.013-0.054-0.015-0.133-0.01-0.238c0.006-0.106,0.01-0.236,0.01-0.391l-0.018-1.984h0.763l0.016,2.015
				c0,0.135-0.002,0.244-0.008,0.329c-0.006,0.082-0.005,0.136,0.008,0.157c0.057,0.157,0.139,0.213,0.244,0.174
				c0.109-0.041,0.173-0.104,0.196-0.19c0.028-0.021,0.038-0.071,0.033-0.15c-0.006-0.077-0.007-0.19-0.007-0.335v-2h0.763V38.61z
				 M38.477,37.697c0,0.199-0.032,0.377-0.095,0.53c-0.063,0.155-0.152,0.266-0.265,0.332c-0.114,0.067-0.251,0.082-0.415,0.045
				c-0.162-0.037-0.347-0.14-0.552-0.308l-0.049,0.267l-0.631,0.016v-4.28h0.763v1.245c0.238-0.167,0.447-0.251,0.631-0.251
				c0.098,0,0.189,0.022,0.266,0.065c0.232,0.134,0.347,0.362,0.347,0.679V37.697z M40.694,38.313
				c-0.199,0.2-0.428,0.309-0.689,0.324h-0.068c-0.233,0-0.453-0.084-0.663-0.251c-0.226-0.177-0.341-0.478-0.341-0.898v-0.995
				c0-0.297,0.033-0.53,0.099-0.696c0.068-0.167,0.175-0.3,0.323-0.397c0.119-0.082,0.254-0.132,0.411-0.153
				c0.159-0.022,0.314-0.017,0.465,0.017c0.153,0.032,0.285,0.092,0.398,0.181c0.115,0.089,0.182,0.206,0.205,0.353
				c0.022,0.085,0.035,0.206,0.04,0.36c0.006,0.153,0.008,0.314,0.008,0.481v0.445h-1.319v0.769c0,0.086,0.03,0.153,0.088,0.202
				c0.059,0.049,0.131,0.072,0.219,0.072h0.119c0.088,0,0.164-0.023,0.227-0.072s0.095-0.115,0.095-0.202v-0.363h0.572
				c0.018,0.09,0.027,0.175,0.036,0.251C40.919,37.976,40.844,38.168,40.694,38.313z M40.311,36.144
				c0-0.093-0.036-0.166-0.104-0.219c-0.07-0.054-0.155-0.081-0.253-0.081h-0.033c-0.095,0-0.174,0.029-0.242,0.085
				c-0.066,0.059-0.099,0.128-0.099,0.216l-0.017,0.395h0.73L40.311,36.144z M33.614,32.43h0.813v-2.534l0.956-2.176h-0.887
				l-0.506,1.626l-0.508-1.626h-0.889l1.021,2.176V32.43z M37.557,35.707c-0.089,0-0.167,0.026-0.238,0.077
				c-0.068,0.051-0.102,0.108-0.102,0.173v1.878c0,0.065,0.033,0.121,0.102,0.17c0.07,0.049,0.148,0.074,0.238,0.074
				c0.088,0,0.166-0.025,0.236-0.074c0.069-0.049,0.104-0.105,0.104-0.17v-1.878c0-0.064-0.035-0.122-0.104-0.173
				C37.722,35.732,37.646,35.707,37.557,35.707z"/>
		</g>
	</g>
	<g id="YouTube">
		<g>
			<linearGradient id="SVGID_3_" gradientUnits="userSpaceOnUse" x1="28.6506" y1="44.3795" x2="44.1891" y2="44.3795">
				<stop  offset="0" style="stop-color:#000000"/>
				<stop  offset="0" style="stop-color:#E54148"/>
				<stop  offset="1" style="stop-color:#BE2A31"/>
			</linearGradient>
			<path fill-rule="evenodd" clip-rule="evenodd" fill="url(#SVGID_3_)" d="M30.898,42.908l-0.974,1.422l-0.974-1.422h-0.299
				l1.147,1.656v1.235h0.251v-1.235l1.147-1.656H30.898z M31.937,43.653c-0.611,0-1.005,0.485-1.005,1.097s0.394,1.101,1.005,1.101
				c0.619,0,1.009-0.49,1.009-1.101S32.557,43.653,31.937,43.653z M31.937,45.647c-0.485,0-0.762-0.429-0.762-0.897
				c0-0.464,0.277-0.893,0.762-0.893c0.494,0,0.766,0.429,0.766,0.893C32.704,45.218,32.431,45.647,31.937,45.647z M34.939,45.301
				c-0.139,0.186-0.411,0.347-0.68,0.347c-0.303,0-0.507-0.113-0.507-0.52v-1.422h-0.225v1.474c0,0.472,0.229,0.672,0.658,0.672
				c0.303,0,0.58-0.169,0.753-0.36v0.308h0.225v-2.093h-0.225V45.301z M35.264,43.133h0.944v2.666h0.251v-2.666h0.944v-0.225h-2.139
				V43.133z M38.914,45.301c-0.139,0.186-0.411,0.347-0.68,0.347c-0.303,0-0.507-0.113-0.507-0.52v-1.422h-0.225v1.474
				c0,0.472,0.229,0.672,0.658,0.672c0.303,0,0.58-0.169,0.753-0.36v0.308h0.225v-2.093h-0.225V45.301z M40.794,43.653
				c-0.294,0-0.559,0.152-0.727,0.39v-1.136h-0.225v2.891h0.225v-0.334c0.147,0.217,0.416,0.386,0.727,0.386
				c0.554,0,0.935-0.425,0.935-1.097C41.729,44.091,41.353,43.653,40.794,43.653z M40.755,45.647c-0.29,0-0.567-0.173-0.688-0.373
				v-1.036c0.121-0.199,0.398-0.381,0.688-0.381c0.468,0,0.732,0.39,0.732,0.897S41.223,45.647,40.755,45.647z M44.189,44.763
				c0-0.602-0.351-1.11-0.987-1.11c-0.58,0-1.009,0.49-1.009,1.097c0,0.646,0.437,1.101,1.048,1.101c0.346,0,0.61-0.121,0.818-0.338
				l-0.117-0.147c-0.178,0.191-0.42,0.29-0.684,0.29c-0.494,0-0.797-0.377-0.818-0.832h1.749V44.763z M42.44,44.646
				c0.017-0.364,0.264-0.798,0.758-0.798c0.524,0,0.758,0.442,0.762,0.798H42.44z"/>
		</g>
	</g>
</g>
<g id="Эллипс_2_копия_1_" enable-background="new    ">
	<g id="Эллипс_2_копия">
		<g>
			<linearGradient id="SVGID_4_" gradientUnits="userSpaceOnUse" x1="58.3635" y1="63.4193" x2="15.3165" y2="10.2607">
				<stop  offset="0" style="stop-color:#000000"/>
				<stop  offset="0" style="stop-color:#E54148"/>
				<stop  offset="1" style="stop-color:#BE2A31"/>
			</linearGradient>
			<path fill="url(#SVGID_4_)" d="M36.84,3.64c18.307,0,33.2,14.893,33.2,33.2s-14.893,33.2-33.2,33.2s-33.2-14.893-33.2-33.2
				S18.533,3.64,36.84,3.64 M36.84,2.64c-18.888,0-34.2,15.312-34.2,34.2s15.312,34.2,34.2,34.2s34.2-15.312,34.2-34.2
				S55.728,2.64,36.84,2.64L36.84,2.64z"/>
		</g>
	</g>
</g>
<g id="Эллипс_2_копия_2_1_" enable-background="new    ">
	<g id="Эллипс_2_копия_2">
		<g>
			<linearGradient id="SVGID_5_" gradientUnits="userSpaceOnUse" x1="59.8415" y1="65.7906" x2="13.3206" y2="8.342">
				<stop  offset="0" style="stop-color:#000000"/>
				<stop  offset="0" style="stop-color:#E54148"/>
				<stop  offset="1" style="stop-color:#BE2A31"/>
			</linearGradient>
			<path fill="url(#SVGID_5_)" d="M36.581,0.706c20.049,0,36.36,16.311,36.36,36.36c0,20.049-16.311,36.36-36.36,36.36
				c-20.049,0-36.36-16.311-36.36-36.36C0.221,17.017,16.532,0.706,36.581,0.706 M36.581,0.106c-20.412,0-36.96,16.548-36.96,36.96
				c0,20.412,16.548,36.96,36.96,36.96c20.412,0,36.96-16.548,36.96-36.96C73.541,16.654,56.994,0.106,36.581,0.106L36.581,0.106z"
				/>
		</g>
	</g>
</g>
</svg>
